<svg width="178" height="51" viewBox="0 0 178 51" fill="none" xmlns="http://www.w3.org/2000/svg">
<path d="M0.556625 6.336C0.556625 4.608 1.00463 3.30667 1.90063 2.432C2.79663 1.55733 3.86329 1.12 5.10063 1.12C6.35929 1.12 8.06596 1.33333 10.2206 1.76C12.3753 2.18667 13.9966 2.41067 15.0846 2.432C16.898 2.09067 18.626 1.67466 20.2686 1.184C20.4393 1.73867 20.5246 2.432 20.5246 3.264C20.5246 4.992 20.0233 6.29333 19.0206 7.168C18.0393 8.04267 16.7806 8.48 15.2446 8.48C14.8606 8.48 14.3486 8.45867 13.7086 8.416C12.5353 14.5813 11.9486 18.0267 11.9486 18.752C11.9486 20.8213 12.2686 22.368 12.9086 23.392C11.6286 24.352 10.2953 24.832 8.90863 24.832C7.52196 24.832 6.52996 24.4373 5.93263 23.648C5.33529 22.8373 5.03663 21.6427 5.03663 20.064C5.03663 18.464 5.65529 14.2187 6.89263 7.328C4.48196 7.648 2.45529 8.01067 0.812625 8.416C0.641958 7.88267 0.556625 7.18933 0.556625 6.336ZM30.9296 20.064L30.6096 19.904C30.0336 21.44 29.2016 22.6453 28.1136 23.52C27.047 24.3733 25.8523 24.8 24.5296 24.8C22.7163 24.8 21.2656 24.1173 20.1776 22.752C19.0896 21.3867 18.5456 19.5627 18.5456 17.28C18.5456 13.7387 19.7296 10.7733 22.0976 8.384C24.487 5.99467 27.4523 4.8 30.9936 4.8C31.911 4.8 32.7536 4.88533 33.5216 5.056C33.6496 5.65333 33.7243 6.176 33.7456 6.624C34.8123 5.94133 35.911 5.6 37.0416 5.6C38.599 5.6 39.3776 6.44267 39.3776 8.128C39.3776 8.72533 39.0363 10.528 38.3536 13.536C37.6923 16.544 37.3616 18.7733 37.3616 20.224C37.3616 21.6747 37.6923 22.6773 38.3536 23.232C37.159 24.2773 35.911 24.8 34.6096 24.8C33.3296 24.8 32.391 24.416 31.7936 23.648C31.2176 22.88 30.9296 21.6853 30.9296 20.064ZM24.5616 15.712C24.5616 16.7573 24.775 17.568 25.2016 18.144C25.6496 18.6987 26.279 18.976 27.0896 18.976C27.9003 18.976 28.7003 18.6773 29.4896 18.08C30.279 17.4827 30.9403 16.6613 31.4736 15.616C31.6656 13.4613 32.0816 10.912 32.7216 7.968C30.567 7.968 28.6683 8.74667 27.0256 10.304C25.383 11.8613 24.5616 13.664 24.5616 15.712ZM52.7961 9.056C52.0068 9.29067 51.3775 9.632 50.9081 10.08C50.4388 10.5067 50.0228 11.1253 49.6601 11.936C53.2655 12.4693 55.8041 13.2373 57.2761 14.24C58.7481 15.2427 59.4841 16.672 59.4841 18.528C59.4841 19.7013 59.1535 20.7253 58.4921 21.6C57.8308 22.4533 56.9988 23.104 55.9961 23.552C54.0335 24.384 52.1028 24.8 50.2041 24.8C44.8068 24.8 42.1081 23.6373 42.1081 21.312C42.1081 20.1387 42.6308 18.9653 43.6761 17.792C44.2095 18.5387 45.0095 19.1787 46.0761 19.712C47.1641 20.2453 48.2201 20.512 49.2441 20.512C51.0148 20.512 52.0815 19.7333 52.4441 18.176C49.2015 17.792 46.8548 17.0667 45.4041 16C43.9535 14.9333 43.2281 13.4293 43.2281 11.488C43.2281 9.952 43.7295 8.66133 44.7321 7.616C45.7561 6.57067 47.0148 5.84533 48.5081 5.44C50.0228 5.01333 51.7188 4.8 53.5961 4.8C55.4948 4.8 57.0521 5.16267 58.2681 5.888C59.5055 6.592 60.1241 7.456 60.1241 8.48C60.1241 9.504 59.7615 10.2933 59.0361 10.848C58.3321 11.4027 57.5535 11.68 56.7001 11.68C55.8681 11.68 55.1001 11.456 54.3961 11.008C53.7135 10.56 53.1801 9.90933 52.7961 9.056ZM63.5346 12.448C63.3853 11.8507 63.3106 11.296 63.3106 10.784C63.3106 9.73867 63.62 8.94933 64.2386 8.416C64.8573 7.88267 65.6573 7.616 66.6386 7.616C66.6386 6.50667 66.3506 5.30133 65.7746 4C66.82 3.232 67.7693 2.656 68.6226 2.272C69.4973 1.86667 70.4146 1.664 71.3746 1.664C72.3346 1.664 72.996 1.84533 73.3586 2.208C73.7426 2.54933 73.9346 3.08267 73.9346 3.808C73.9346 4.53333 73.7853 5.664 73.4866 7.2C74.34 7.072 75.204 6.89067 76.0786 6.656C76.228 7.104 76.3026 7.68 76.3026 8.384C76.3026 9.088 76.0253 9.74933 75.4706 10.368C74.9373 10.9653 74.148 11.264 73.1026 11.264H72.6226C71.8546 14.7413 71.4706 17.4187 71.4706 19.296C71.4706 21.1733 71.8013 22.4853 72.4626 23.232C71.268 24.2773 69.9986 24.8 68.6546 24.8C67.3106 24.8 66.34 24.4053 65.7426 23.616C65.1666 22.8053 64.8786 21.5573 64.8786 19.872C64.8786 18.848 65.252 16.16 65.9986 11.808C65.1453 11.9573 64.324 12.1707 63.5346 12.448ZM87.2014 24.8C84.2787 24.8 82.0174 24.0427 80.4174 22.528C78.8387 21.0133 78.0494 18.9653 78.0494 16.384C78.0494 12.9493 79.2227 10.1653 81.5694 8.032C83.9374 5.87733 86.9027 4.8 90.4654 4.8C92.4494 4.8 93.9534 5.248 94.9774 6.144C96.0014 7.01867 96.5134 8.18133 96.5134 9.632C96.5134 11.616 95.5427 13.2693 93.6014 14.592C91.6814 15.8933 88.7054 16.5547 84.6734 16.576C84.7374 17.9413 85.0467 19.0187 85.6014 19.808C86.156 20.576 86.8494 20.96 87.6814 20.96C88.5134 20.96 89.228 20.6827 89.8254 20.128C90.444 19.5733 90.7534 18.6667 90.7534 17.408C93.868 17.408 95.4254 18.144 95.4254 19.616C95.4254 20.8747 94.6574 22.0587 93.1214 23.168C91.5854 24.256 89.612 24.8 87.2014 24.8ZM89.9214 8.544C88.8334 8.544 87.8307 9.088 86.9134 10.176C86.0174 11.264 85.3667 12.544 84.9614 14.016C87.0947 13.8453 88.6947 13.3653 89.7614 12.576C90.8494 11.7653 91.3934 10.912 91.3934 10.016C91.3934 9.58933 91.2547 9.23733 90.9774 8.96C90.7214 8.68267 90.3694 8.544 89.9214 8.544ZM124.233 24.832C122.846 24.832 121.854 24.4373 121.257 23.648C120.659 22.8373 120.361 21.6533 120.361 20.096C120.361 18.5387 120.862 14.9547 121.865 9.344H121.353C120.051 11.0507 118.974 13.088 118.121 15.456C117.267 17.824 116.745 19.9573 116.553 21.856C115.507 22.8373 114.302 23.328 112.937 23.328C112.382 23.328 111.891 23.136 111.465 22.752C111.059 22.3467 110.654 21.6533 110.249 20.672C109.459 18.688 108.894 14.912 108.553 9.344H108.041C106.995 13.9307 106.473 17.1627 106.473 19.04C106.473 20.9173 106.793 22.368 107.433 23.392C106.153 24.352 104.819 24.832 103.433 24.832C102.046 24.832 101.054 24.4373 100.457 23.648C99.8593 22.8373 99.5606 21.6427 99.5606 20.064C99.5606 18.464 100.233 13.952 101.577 6.528L99.8806 3.104C102.291 1.54667 104.489 0.768 106.473 0.768C107.347 0.768 108.083 0.864 108.681 1.056C109.299 1.22667 109.886 1.568 110.441 2.08C111.017 2.592 111.486 3.30667 111.849 4.224C112.681 6.29333 113.278 9.312 113.641 13.28H114.025C115.134 10.016 116.67 7.21067 118.633 4.864C119.699 3.60533 120.969 2.61333 122.441 1.888C123.934 1.16267 125.545 0.799999 127.273 0.799999C128.915 0.799999 129.737 1.792 129.737 3.776C129.737 4.43733 129.321 6.90133 128.489 11.168C127.678 15.4133 127.273 17.9413 127.273 18.752C127.273 20.8213 127.593 22.368 128.233 23.392C126.953 24.352 125.619 24.832 124.233 24.832ZM144.461 20.064L144.141 19.904C143.565 21.44 142.733 22.6453 141.645 23.52C140.578 24.3733 139.384 24.8 138.061 24.8C136.248 24.8 134.797 24.1173 133.709 22.752C132.621 21.3867 132.077 19.5627 132.077 17.28C132.077 13.7387 133.261 10.7733 135.629 8.384C138.018 5.99467 140.984 4.8 144.525 4.8C145.442 4.8 146.285 4.88533 147.053 5.056C147.181 5.65333 147.256 6.176 147.277 6.624C148.344 5.94133 149.442 5.6 150.573 5.6C152.13 5.6 152.909 6.44267 152.909 8.128C152.909 8.72533 152.568 10.528 151.885 13.536C151.224 16.544 150.893 18.7733 150.893 20.224C150.893 21.6747 151.224 22.6773 151.885 23.232C150.69 24.2773 149.442 24.8 148.141 24.8C146.861 24.8 145.922 24.416 145.325 23.648C144.749 22.88 144.461 21.6853 144.461 20.064ZM138.093 15.712C138.093 16.7573 138.306 17.568 138.733 18.144C139.181 18.6987 139.81 18.976 140.621 18.976C141.432 18.976 142.232 18.6773 143.021 18.08C143.81 17.4827 144.472 16.6613 145.005 15.616C145.197 13.4613 145.613 10.912 146.253 7.968C144.098 7.968 142.2 8.74667 140.557 10.304C138.914 11.8613 138.093 13.664 138.093 15.712ZM159.671 30.368C158.349 30.368 157.421 30.0373 156.887 29.376C156.375 28.736 156.119 27.7973 156.119 26.56C156.119 25.344 156.375 22.88 156.887 19.168C157.421 15.456 157.933 12.288 158.423 9.664L156.631 7.104C157.954 6.336 159.095 5.76 160.055 5.376C161.015 4.97067 161.965 4.768 162.903 4.768C164.439 4.768 165.207 5.78133 165.207 7.808C165.207 8.08533 165.165 8.65067 165.079 9.504L165.399 9.664C166.018 8.128 166.914 6.93333 168.087 6.08C169.261 5.20533 170.637 4.768 172.215 4.768C173.815 4.768 175.085 5.49333 176.023 6.944C176.962 8.37333 177.431 10.1547 177.431 12.288C177.431 15.1467 176.429 17.7493 174.423 20.096C173.442 21.248 172.13 22.1867 170.487 22.912C168.845 23.616 167.01 23.968 164.983 23.968C164.365 23.968 163.554 23.9147 162.551 23.808C162.487 24.5547 162.455 25.248 162.455 25.888C162.455 27.2533 162.786 28.224 163.447 28.8C162.253 29.8453 160.994 30.368 159.671 30.368ZM163.863 17.12L163.127 20.832C165.709 20.768 167.767 19.9253 169.303 18.304C170.861 16.6613 171.639 14.8693 171.639 12.928C171.639 11.9253 171.437 11.1253 171.031 10.528C170.647 9.90933 170.082 9.6 169.335 9.6C166.69 9.6 164.866 12.1067 163.863 17.12ZM24.9023 40.088H25.8623V50.936H24.9023V40.088ZM23.0783 44.504H25.1663V45.32H23.0783V44.504ZM22.4423 40.328H23.3783V50.384H22.4423V40.328ZM17.1863 41.396H18.1823V47.66H17.1863V41.396ZM17.1863 47.264H17.8823C18.9983 47.264 20.2463 47.192 21.6623 46.916L21.7703 47.78C20.2943 48.068 19.0463 48.128 17.8823 48.128H17.1863V47.264ZM35.0414 40.076H36.0494V50.936H35.0414V40.076ZM35.7734 44.48H37.7774V45.308H35.7734V44.48ZM32.2694 41.252H33.2414C33.2414 44.336 31.8254 47.12 28.3214 48.884L27.7694 48.116C30.7694 46.592 32.2694 44.276 32.2694 41.408V41.252ZM28.2734 41.252H32.7854V42.068H28.2734V41.252ZM42.7901 41.06H47.7701V46.088H42.7901V41.06ZM46.7981 41.864H43.7621V45.284H46.7981V41.864ZM49.7621 40.076H50.7581V48.032H49.7621V40.076ZM50.4461 43.388H52.3661V44.216H50.4461V43.388ZM44.0021 49.88H51.2501V50.696H44.0021V49.88ZM44.0021 47.276H44.9981V50.228H44.0021V47.276ZM54.6212 45.284H62.0732V46.1H54.6212V45.284ZM53.3852 48.644H63.2132V49.472H53.3852V48.644ZM54.6212 41.084H61.9652V41.912H55.6172V45.644H54.6212V41.084ZM65.7442 43.34H73.1122V44.156H65.7442V43.34ZM64.4122 45.608H74.2522V46.424H64.4122V45.608ZM65.7442 40.484H66.7282V43.748H65.7442V40.484ZM65.6722 49.856H73.1722V50.672H65.6722V49.856ZM65.6722 47.504H66.6562V50.072H65.6722V47.504ZM87.1249 44.408H89.1289V45.248H87.1249V44.408ZM86.3929 40.076H87.4009V50.936H86.3929V40.076ZM79.4809 41.144H80.4769V47.864H79.4809V41.144ZM79.4809 47.348H80.3449C81.9529 47.348 83.5969 47.24 85.3849 46.868L85.5049 47.696C83.6569 48.08 81.9889 48.188 80.3449 48.188H79.4809V47.348ZM90.544 41.06H95.524V46.088H90.544V41.06ZM94.552 41.864H91.516V45.284H94.552V41.864ZM97.516 40.076H98.512V48.032H97.516V40.076ZM98.2 43.388H100.12V44.216H98.2V43.388ZM91.756 49.88H99.004V50.696H91.756V49.88ZM91.756 47.276H92.752V50.228H91.756V47.276ZM104.655 40.868C106.347 40.868 107.559 41.912 107.559 43.424C107.559 44.948 106.347 45.992 104.655 45.992C102.963 45.992 101.739 44.948 101.739 43.424C101.739 41.912 102.963 40.868 104.655 40.868ZM104.655 41.732C103.527 41.732 102.711 42.416 102.711 43.424C102.711 44.432 103.527 45.128 104.655 45.128C105.771 45.128 106.587 44.432 106.587 43.424C106.587 42.416 105.771 41.732 104.655 41.732ZM108.975 40.076H109.971V50.948H108.975V40.076ZM101.331 48.572L101.187 47.744C103.167 47.744 105.903 47.732 108.267 47.36L108.351 48.092C105.915 48.56 103.263 48.572 101.331 48.572ZM116.22 40.916H121.104V45.728H116.22V40.916ZM120.12 41.72H117.192V44.924H120.12V41.72ZM123.192 40.088H124.188V47.288H123.192V40.088ZM123.912 43.052H125.796V43.868H123.912V43.052ZM120.42 46.772H121.272V47.108C121.272 49.136 119.376 50.492 117.192 50.9L116.796 50.108C118.74 49.796 120.42 48.644 120.42 47.108V46.772ZM120.552 46.772H121.404V47.108C121.404 48.644 123.096 49.796 125.016 50.108L124.632 50.9C122.448 50.492 120.552 49.136 120.552 47.108V46.772ZM129.695 41.024H130.523V41.852C130.523 43.76 129.275 45.368 127.451 45.992L126.947 45.2C128.579 44.672 129.695 43.328 129.695 41.852V41.024ZM129.887 41.024H130.715V41.852C130.715 43.256 131.855 44.516 133.451 45.02L132.959 45.8C131.159 45.212 129.887 43.688 129.887 41.852V41.024ZM127.223 40.796H133.163V41.6H127.223V40.796ZM134.699 40.088H135.707V45.956H134.699V40.088ZM128.711 46.496H129.695V47.78H134.723V46.496H135.707V50.792H128.711V46.496ZM129.695 48.584V49.976H134.723V48.584H129.695ZM144.32 41.636H145.124V43.4C145.124 45.692 143.744 47.996 142.016 48.848L141.44 48.056C143.012 47.312 144.32 45.272 144.32 43.4V41.636ZM144.512 41.636H145.316V43.4C145.316 45.236 146.624 47.108 148.22 47.792L147.656 48.584C145.904 47.768 144.512 45.656 144.512 43.4V41.636ZM141.8 41.192H147.86V42.032H141.8V41.192ZM149.324 40.088H150.32V50.936H149.324V40.088ZM153.727 45.152H161.179V45.968H153.727V45.152ZM152.491 48.74H162.319V49.58H152.491V48.74ZM156.883 45.5H157.879V49.076H156.883V45.5ZM153.727 40.952H161.071V41.768H154.723V45.512H153.727V40.952Z" fill="black"/>
</svg>
