<svg width="50" height="50" viewBox="0 0 50 50" fill="none" xmlns="http://www.w3.org/2000/svg">
<rect width="50" height="50" rx="15" fill="#EEEEEE"/>
<path d="M23.701 11.25C24.2783 10.25 25.7217 10.25 26.299 11.25L30.6292 18.75C31.2065 19.75 30.4848 21 29.3301 21H20.6699C19.5152 21 18.7935 19.75 19.3708 18.75L23.701 11.25Z" fill="#70CCA0"/>
<path d="M17.9629 32.4238V40H16.8672V32.4238H14.4531V31.5801H20.3945L20.2539 32.4238H17.9629ZM22.2695 35.7695C22.2695 36.3203 22.3105 36.8125 22.3926 37.2461C22.4785 37.6758 22.6133 38.041 22.7969 38.3418C22.9805 38.6387 23.2148 38.8652 23.5 39.0215C23.7852 39.1777 24.1309 39.2559 24.5371 39.2559C24.9473 39.2559 25.2949 39.1777 25.5801 39.0215C25.8691 38.8652 26.1055 38.6387 26.2891 38.3418C26.4727 38.041 26.6055 37.6758 26.6875 37.2461C26.7734 36.8125 26.8164 36.3203 26.8164 35.7695C26.8164 35.2227 26.7734 34.7344 26.6875 34.3047C26.6055 33.875 26.4727 33.5117 26.2891 33.2148C26.1055 32.918 25.8691 32.6914 25.5801 32.5352C25.2949 32.3789 24.9473 32.3008 24.5371 32.3008C24.1348 32.3008 23.7891 32.3789 23.5 32.5352C23.2148 32.6914 22.9805 32.918 22.7969 33.2148C22.6172 33.5117 22.4844 33.875 22.3984 34.3047C22.3125 34.7344 22.2695 35.2227 22.2695 35.7695ZM21.1504 35.7695C21.1504 34.3008 21.4395 33.209 22.0176 32.4941C22.5957 31.7793 23.4355 31.4219 24.5371 31.4219C25.6465 31.4219 26.4902 31.7793 27.0684 32.4941C27.6504 33.209 27.9414 34.3008 27.9414 35.7695C27.9414 37.2539 27.6504 38.3535 27.0684 39.0684C26.4902 39.7832 25.6465 40.1406 24.5371 40.1406C23.9863 40.1406 23.5 40.0527 23.0781 39.877C22.6562 39.6973 22.3027 39.4277 22.0176 39.0684C21.7324 38.7051 21.5156 38.25 21.3672 37.7031C21.2227 37.1562 21.1504 36.5117 21.1504 35.7695ZM31.8379 35.7988C32.3105 35.7988 32.7012 35.7695 33.0098 35.7109C33.3223 35.6484 33.5684 35.5508 33.748 35.418C33.9316 35.2852 34.0586 35.1172 34.1289 34.9141C34.2031 34.707 34.2402 34.4492 34.2402 34.1406C34.2402 33.7734 34.2051 33.4805 34.1348 33.2617C34.0645 33.0391 33.9355 32.8672 33.748 32.7461C33.5605 32.6211 33.3008 32.5371 32.9688 32.4941C32.6367 32.4473 32.207 32.4238 31.6797 32.4238H30.8184V35.7988H31.8379ZM35.3711 34.1523C35.3711 34.6289 35.3008 35.0254 35.1602 35.3418C35.0195 35.6543 34.8008 35.9082 34.5039 36.1035C34.2109 36.2988 33.8359 36.4395 33.3789 36.5254C32.9219 36.6113 32.377 36.6543 31.7441 36.6543H31.1875C31.0703 36.6543 30.9473 36.6523 30.8184 36.6484V40H29.7344V31.5801H31.5449C32.3027 31.5801 32.9277 31.623 33.4199 31.709C33.9121 31.791 34.3027 31.9316 34.5918 32.1309C34.8809 32.3301 35.082 32.5938 35.1953 32.9219C35.3125 33.2461 35.3711 33.6562 35.3711 34.1523Z" fill="#333333"/>
</svg>
