<svg width="120" height="40" viewBox="0 0 120 40" fill="none" xmlns="http://www.w3.org/2000/svg">
<rect width="120" height="40" rx="20" fill="#FF8C8C"/>
<path d="M23.456 26.44C21.8987 26.44 20.7467 25.9387 20 24.936C19.264 23.9227 18.896 22.392 18.896 20.344C18.896 18.8293 19.0933 17.544 19.488 16.488C19.8827 15.4213 20.4427 14.6267 21.168 14.104C21.296 13.6667 21.5733 13.2827 22 12.952L22.4 13.064C22.3893 13.1067 22.384 13.1653 22.384 13.24C22.384 13.3573 22.3893 13.448 22.4 13.512C22.7627 13.4267 23.1147 13.384 23.456 13.384C23.7973 13.384 24.1493 13.4267 24.512 13.512C24.5227 13.4587 24.528 13.3733 24.528 13.256C24.528 13.1707 24.5227 13.1067 24.512 13.064L24.912 12.952C25.3387 13.2613 25.616 13.6507 25.744 14.12C26.4587 14.6533 27.0133 15.4533 27.408 16.52C27.8133 17.576 28.016 18.8507 28.016 20.344C28.016 22.392 27.6427 23.9227 26.896 24.936C26.16 25.9387 25.0133 26.44 23.456 26.44ZM22.352 20.12C22.352 20.8667 22.368 21.448 22.4 21.864C22.4427 22.28 22.544 22.6267 22.704 22.904C22.864 23.1707 23.1147 23.304 23.456 23.304C23.7973 23.304 24.048 23.1707 24.208 22.904C24.368 22.6267 24.464 22.28 24.496 21.864C24.5387 21.4373 24.56 20.856 24.56 20.12C24.56 19.096 24.48 18.264 24.32 17.624C24.1707 16.984 23.8827 16.664 23.456 16.664C23.0187 16.664 22.7253 16.984 22.576 17.624C22.4267 18.2533 22.352 19.0853 22.352 20.12ZM28.528 13.448C28.5493 13.2027 28.7893 13.0373 29.248 12.952C29.7067 12.856 30.32 12.808 31.088 12.808C31.4827 12.808 32.0213 12.8187 32.704 12.84C32.768 15.24 32.8 17.6453 32.8 20.056C32.8 22.456 32.768 24.8667 32.704 27.288L29.248 27.608V13.56H29.184C29.12 13.56 29.0453 13.5707 28.96 13.592C28.8747 13.6027 28.816 13.624 28.784 13.656L28.528 13.448ZM34.272 19.544C35.0507 19.0747 35.6747 18.6747 36.144 18.344C36.6133 18.0133 36.976 17.672 37.232 17.32C37.3387 17.16 37.408 16.984 37.44 16.792C37.472 16.6 37.4827 16.3387 37.472 16.008H34.912C34.848 15.5707 34.816 15.0907 34.816 14.568C34.816 14.024 34.848 13.544 34.912 13.128C36.4267 13.0427 37.8507 13 39.184 13C40.5067 13 41.9253 13.0427 43.44 13.128V16.008H40.912C40.912 16.4133 40.8853 16.8133 40.832 17.208C41.6107 17.6347 42.2933 18.0613 42.88 18.488C43.4667 18.904 43.9093 19.3253 44.208 19.752L41.84 21.816C41.4987 21.4427 41.0987 21.0747 40.64 20.712C40.1813 20.3387 39.7333 20.024 39.296 19.768C38.4747 20.568 37.8827 21.0693 37.52 21.272C37.2213 21.432 36.9387 21.5493 36.672 21.624C36.416 21.688 36.1813 21.736 35.968 21.768C35.7547 21.8 35.6107 21.8213 35.536 21.832L34.272 19.544ZM36.496 27.624C36.4427 26.664 36.416 25.8 36.416 25.032C36.416 24.264 36.4427 23.4 36.496 22.44H39.872V24.68H48.832C48.864 25.16 48.88 25.6507 48.88 26.152C48.88 26.6427 48.864 27.1333 48.832 27.624C46.6133 27.6773 44.56 27.704 42.672 27.704C40.7733 27.704 38.7147 27.6773 36.496 27.624ZM43.776 15.704H45.312V13.48H45.248C45.184 13.48 45.1093 13.4907 45.024 13.512C44.9387 13.5227 44.88 13.544 44.848 13.576L44.592 13.368C44.6133 13.1227 44.8427 12.9573 45.28 12.872C45.728 12.776 46.3307 12.728 47.088 12.728C47.472 12.728 48.0053 12.7387 48.688 12.76C48.7413 14.7333 48.768 16.52 48.768 18.12C48.768 19.72 48.7413 21.5067 48.688 23.48L45.312 23.8V18.76H43.776V15.704ZM54.56 25.912C54.5173 25.4533 54.496 24.9787 54.496 24.488C54.496 23.9867 54.5173 23.5173 54.56 23.08H55.44L55.392 16.312H54.56C54.5173 15.8747 54.496 15.432 54.496 14.984C54.496 14.5253 54.5173 14.0827 54.56 13.656C55.8293 13.5387 57.0667 13.48 58.272 13.48C59.4773 13.48 60.7147 13.5387 61.984 13.656V16.312H61.2V23.08H62.128V25.912C60.752 25.944 59.4987 25.96 58.368 25.96C57.2587 25.96 55.9893 25.944 54.56 25.912ZM58.624 23.08V16.312H57.984V23.08H58.624ZM61.648 17.704H62.752V13.64H62.704C62.5973 13.64 62.512 13.672 62.448 13.736L62.192 13.528C62.2347 13.336 62.3947 13.2027 62.672 13.128C62.96 13.0533 63.344 13.016 63.824 13.016C64.048 13.016 64.416 13.0267 64.928 13.048L65.552 13.064C65.584 15.368 65.6 17.6773 65.6 19.992C65.6 22.296 65.584 24.6107 65.552 26.936L62.752 27.256V20.76H61.648V17.704ZM65.696 13.304C65.7387 13.112 65.888 12.9787 66.144 12.904C66.4107 12.8293 66.7787 12.792 67.248 12.792C67.44 12.792 67.8027 12.8027 68.336 12.824L69.072 12.84C69.136 15.24 69.168 17.6453 69.168 20.056C69.168 22.456 69.136 24.8667 69.072 27.288L66.208 27.608V13.416H66.16C66.0853 13.416 66.016 13.448 65.952 13.512L65.696 13.304ZM75.456 26.44C73.8987 26.44 72.7467 25.9387 72 24.936C71.264 23.9227 70.896 22.392 70.896 20.344C70.896 18.8293 71.0933 17.544 71.488 16.488C71.8827 15.4213 72.4427 14.6267 73.168 14.104C73.296 13.6667 73.5733 13.2827 74 12.952L74.4 13.064C74.3893 13.1067 74.384 13.1653 74.384 13.24C74.384 13.3573 74.3893 13.448 74.4 13.512C74.7627 13.4267 75.1147 13.384 75.456 13.384C75.7973 13.384 76.1493 13.4267 76.512 13.512C76.5227 13.4587 76.528 13.3733 76.528 13.256C76.528 13.1707 76.5227 13.1067 76.512 13.064L76.912 12.952C77.3387 13.2613 77.616 13.6507 77.744 14.12C78.4587 14.6533 79.0133 15.4533 79.408 16.52C79.8133 17.576 80.016 18.8507 80.016 20.344C80.016 22.392 79.6427 23.9227 78.896 24.936C78.16 25.9387 77.0133 26.44 75.456 26.44ZM74.352 20.12C74.352 20.8667 74.368 21.448 74.4 21.864C74.4427 22.28 74.544 22.6267 74.704 22.904C74.864 23.1707 75.1147 23.304 75.456 23.304C75.7973 23.304 76.048 23.1707 76.208 22.904C76.368 22.6267 76.464 22.28 76.496 21.864C76.5387 21.4373 76.56 20.856 76.56 20.12C76.56 19.096 76.48 18.264 76.32 17.624C76.1707 16.984 75.8827 16.664 75.456 16.664C75.0187 16.664 74.7253 16.984 74.576 17.624C74.4267 18.2533 74.352 19.0853 74.352 20.12ZM80.528 13.448C80.5493 13.2027 80.7893 13.0373 81.248 12.952C81.7067 12.856 82.32 12.808 83.088 12.808C83.4827 12.808 84.0213 12.8187 84.704 12.84C84.768 15.24 84.8 17.6453 84.8 20.056C84.8 22.456 84.768 24.8667 84.704 27.288L81.248 27.608V13.56H81.184C81.12 13.56 81.0453 13.5707 80.96 13.592C80.8747 13.6027 80.816 13.624 80.784 13.656L80.528 13.448ZM86.496 24.52C86.88 24.136 87.3067 23.608 87.776 22.936C88.256 22.264 88.6773 21.544 89.04 20.776C89.4027 19.9973 89.6053 19.2827 89.648 18.632C89.68 18.024 89.7067 17.2773 89.728 16.392H87.136C87.072 15.8907 87.04 15.4 87.04 14.92C87.04 14.4187 87.072 13.928 87.136 13.448C88.352 13.352 89.8187 13.304 91.536 13.304C93.2427 13.304 94.704 13.352 95.92 13.448V16.392H93.232C93.2213 17.3627 93.1893 18.2427 93.136 19.032C93.7867 19.7893 94.4587 20.7387 95.152 21.88C95.8453 23.0213 96.3307 23.96 96.608 24.696L94 26.2C93.52 25.144 92.7893 23.8907 91.808 22.44C91.2427 23.432 90.7253 24.264 90.256 24.936C89.9787 25.3307 89.6747 25.624 89.344 25.816C89.024 26.0187 88.6027 26.2267 88.08 26.44L86.496 24.52ZM96.512 13.448C96.5333 13.2027 96.7733 13.0373 97.232 12.952C97.6907 12.856 98.304 12.808 99.072 12.808C99.4667 12.808 100.005 12.8187 100.688 12.84C100.752 15.24 100.784 17.6453 100.784 20.056C100.784 22.456 100.752 24.8667 100.688 27.288L97.232 27.608V13.56H97.168C97.104 13.56 97.0293 13.5707 96.944 13.592C96.8587 13.6027 96.8 13.624 96.768 13.656L96.512 13.448Z" fill="white"/>
</svg>
