<svg width="111" height="19" viewBox="0 0 111 19" fill="none" xmlns="http://www.w3.org/2000/svg">
<path d="M0.410391 3.96C0.410391 2.88 0.690391 2.06667 1.25039 1.52C1.81039 0.973333 2.47706 0.699999 3.25039 0.699999C4.03706 0.699999 5.10372 0.833333 6.45039 1.1C7.79706 1.36667 8.81039 1.50667 9.49039 1.52C10.6237 1.30667 11.7037 1.04667 12.7304 0.739999C12.8371 1.08667 12.8904 1.52 12.8904 2.04C12.8904 3.12 12.5771 3.93333 11.9504 4.48C11.3371 5.02667 10.5504 5.3 9.59039 5.3C9.35039 5.3 9.03039 5.28667 8.63039 5.26C7.89706 9.11333 7.53039 11.2667 7.53039 11.72C7.53039 13.0133 7.73039 13.98 8.13039 14.62C7.33039 15.22 6.49706 15.52 5.63039 15.52C4.76372 15.52 4.14372 15.2733 3.77039 14.78C3.39706 14.2733 3.21039 13.5267 3.21039 12.54C3.21039 11.54 3.59706 8.88667 4.37039 4.58C2.86372 4.78 1.59706 5.00667 0.570391 5.26C0.463724 4.92667 0.410391 4.49333 0.410391 3.96ZM19.3935 12.54L19.1935 12.44C18.8335 13.4 18.3135 14.1533 17.6335 14.7C16.9668 15.2333 16.2202 15.5 15.3935 15.5C14.2602 15.5 13.3535 15.0733 12.6735 14.22C11.9935 13.3667 11.6535 12.2267 11.6535 10.8C11.6535 8.58667 12.3935 6.73333 13.8735 5.24C15.3668 3.74667 17.2202 3 19.4335 3C20.0068 3 20.5335 3.05333 21.0135 3.16C21.0935 3.53333 21.1402 3.86 21.1535 4.14C21.8202 3.71333 22.5068 3.5 23.2135 3.5C24.1868 3.5 24.6735 4.02667 24.6735 5.08C24.6735 5.45333 24.4602 6.58 24.0335 8.46C23.6202 10.34 23.4135 11.7333 23.4135 12.64C23.4135 13.5467 23.6202 14.1733 24.0335 14.52C23.2868 15.1733 22.5068 15.5 21.6935 15.5C20.8935 15.5 20.3068 15.26 19.9335 14.78C19.5735 14.3 19.3935 13.5533 19.3935 12.54ZM15.4135 9.82C15.4135 10.4733 15.5468 10.98 15.8135 11.34C16.0935 11.6867 16.4868 11.86 16.9935 11.86C17.5002 11.86 18.0002 11.6733 18.4935 11.3C18.9868 10.9267 19.4002 10.4133 19.7335 9.76C19.8535 8.41333 20.1135 6.82 20.5135 4.98C19.1668 4.98 17.9802 5.46667 16.9535 6.44C15.9268 7.41333 15.4135 8.54 15.4135 9.82ZM33.0601 5.66C32.5667 5.80667 32.1734 6.02 31.8801 6.3C31.5867 6.56667 31.3267 6.95333 31.1001 7.46C33.3534 7.79333 34.9401 8.27333 35.8601 8.9C36.7801 9.52667 37.2401 10.42 37.2401 11.58C37.2401 12.3133 37.0334 12.9533 36.6201 13.5C36.2067 14.0333 35.6867 14.44 35.0601 14.72C33.8334 15.24 32.6267 15.5 31.4401 15.5C28.0667 15.5 26.3801 14.7733 26.3801 13.32C26.3801 12.5867 26.7067 11.8533 27.3601 11.12C27.6934 11.5867 28.1934 11.9867 28.8601 12.32C29.5401 12.6533 30.2001 12.82 30.8401 12.82C31.9467 12.82 32.6134 12.3333 32.8401 11.36C30.8134 11.12 29.3467 10.6667 28.4401 10C27.5334 9.33333 27.0801 8.39333 27.0801 7.18C27.0801 6.22 27.3934 5.41333 28.0201 4.76C28.6601 4.10667 29.4467 3.65333 30.3801 3.4C31.3267 3.13333 32.3867 3 33.5601 3C34.7467 3 35.7201 3.22667 36.4801 3.68C37.2534 4.12 37.6401 4.66 37.6401 5.3C37.6401 5.94 37.4134 6.43333 36.9601 6.78C36.5201 7.12667 36.0334 7.3 35.5001 7.3C34.9801 7.3 34.5001 7.16 34.0601 6.88C33.6334 6.6 33.3001 6.19333 33.0601 5.66ZM39.7716 7.78C39.6783 7.40667 39.6316 7.06 39.6316 6.74C39.6316 6.08667 39.825 5.59333 40.2116 5.26C40.5983 4.92667 41.0983 4.76 41.7116 4.76C41.7116 4.06667 41.5316 3.31333 41.1716 2.5C41.825 2.02 42.4183 1.66 42.9516 1.42C43.4983 1.16667 44.0716 1.04 44.6716 1.04C45.2716 1.04 45.685 1.15333 45.9116 1.38C46.1516 1.59333 46.2716 1.92667 46.2716 2.38C46.2716 2.83333 46.1783 3.54 45.9916 4.5C46.525 4.42 47.065 4.30667 47.6116 4.16C47.705 4.44 47.7516 4.8 47.7516 5.24C47.7516 5.68 47.5783 6.09333 47.2316 6.48C46.8983 6.85333 46.405 7.04 45.7516 7.04H45.4516C44.9716 9.21333 44.7316 10.8867 44.7316 12.06C44.7316 13.2333 44.9383 14.0533 45.3516 14.52C44.605 15.1733 43.8116 15.5 42.9716 15.5C42.1316 15.5 41.525 15.2533 41.1516 14.76C40.7916 14.2533 40.6116 13.4733 40.6116 12.42C40.6116 11.78 40.845 10.1 41.3116 7.38C40.7783 7.47333 40.265 7.60667 39.7716 7.78ZM54.5634 15.5C52.7367 15.5 51.3234 15.0267 50.3234 14.08C49.3367 13.1333 48.8434 11.8533 48.8434 10.24C48.8434 8.09333 49.5767 6.35333 51.0434 5.02C52.5234 3.67333 54.3767 3 56.6034 3C57.8434 3 58.7834 3.28 59.4234 3.84C60.0634 4.38667 60.3834 5.11333 60.3834 6.02C60.3834 7.26 59.7767 8.29333 58.5634 9.12C57.3634 9.93333 55.5034 10.3467 52.9834 10.36C53.0234 11.2133 53.2167 11.8867 53.5634 12.38C53.91 12.86 54.3434 13.1 54.8634 13.1C55.3834 13.1 55.83 12.9267 56.2034 12.58C56.59 12.2333 56.7834 11.6667 56.7834 10.88C58.73 10.88 59.7034 11.34 59.7034 12.26C59.7034 13.0467 59.2234 13.7867 58.2634 14.48C57.3034 15.16 56.07 15.5 54.5634 15.5ZM56.2634 5.34C55.5834 5.34 54.9567 5.68 54.3834 6.36C53.8234 7.04 53.4167 7.84 53.1634 8.76C54.4967 8.65333 55.4967 8.35333 56.1634 7.86C56.8434 7.35333 57.1834 6.82 57.1834 6.26C57.1834 5.99333 57.0967 5.77333 56.9234 5.6C56.7634 5.42667 56.5434 5.34 56.2634 5.34ZM77.7079 15.52C76.8412 15.52 76.2212 15.2733 75.8479 14.78C75.4746 14.2733 75.2879 13.5333 75.2879 12.56C75.2879 11.5867 75.6012 9.34667 76.2279 5.84H75.9079C75.0946 6.90667 74.4212 8.18 73.8879 9.66C73.3546 11.14 73.0279 12.4733 72.9079 13.66C72.2546 14.2733 71.5012 14.58 70.6479 14.58C70.3012 14.58 69.9946 14.46 69.7279 14.22C69.4746 13.9667 69.2212 13.5333 68.9679 12.92C68.4746 11.68 68.1212 9.32 67.9079 5.84H67.5879C66.9346 8.70667 66.6079 10.7267 66.6079 11.9C66.6079 13.0733 66.8079 13.98 67.2079 14.62C66.4079 15.22 65.5746 15.52 64.7079 15.52C63.8412 15.52 63.2212 15.2733 62.8479 14.78C62.4746 14.2733 62.2879 13.5267 62.2879 12.54C62.2879 11.54 62.7079 8.72 63.5479 4.08L62.4879 1.94C63.9946 0.966666 65.3679 0.48 66.6079 0.48C67.1546 0.48 67.6146 0.54 67.9879 0.66C68.3746 0.766666 68.7412 0.979999 69.0879 1.3C69.4479 1.62 69.7412 2.06667 69.9679 2.64C70.4879 3.93333 70.8612 5.82 71.0879 8.3H71.3279C72.0212 6.26 72.9812 4.50667 74.2079 3.04C74.8746 2.25333 75.6679 1.63333 76.5879 1.18C77.5212 0.726666 78.5279 0.5 79.6079 0.5C80.6346 0.5 81.1479 1.12 81.1479 2.36C81.1479 2.77333 80.8879 4.31333 80.3679 6.98C79.8612 9.63333 79.6079 11.2133 79.6079 11.72C79.6079 13.0133 79.8079 13.98 80.2079 14.62C79.4079 15.22 78.5746 15.52 77.7079 15.52ZM90.3505 12.54L90.1505 12.44C89.7905 13.4 89.2705 14.1533 88.5905 14.7C87.9239 15.2333 87.1772 15.5 86.3505 15.5C85.2172 15.5 84.3105 15.0733 83.6305 14.22C82.9505 13.3667 82.6105 12.2267 82.6105 10.8C82.6105 8.58667 83.3505 6.73333 84.8305 5.24C86.3239 3.74667 88.1772 3 90.3905 3C90.9639 3 91.4905 3.05333 91.9705 3.16C92.0505 3.53333 92.0972 3.86 92.1105 4.14C92.7772 3.71333 93.4639 3.5 94.1705 3.5C95.1439 3.5 95.6305 4.02667 95.6305 5.08C95.6305 5.45333 95.4172 6.58 94.9905 8.46C94.5772 10.34 94.3705 11.7333 94.3705 12.64C94.3705 13.5467 94.5772 14.1733 94.9905 14.52C94.2439 15.1733 93.4639 15.5 92.6505 15.5C91.8505 15.5 91.2639 15.26 90.8905 14.78C90.5305 14.3 90.3505 13.5533 90.3505 12.54ZM86.3705 9.82C86.3705 10.4733 86.5039 10.98 86.7705 11.34C87.0505 11.6867 87.4439 11.86 87.9505 11.86C88.4572 11.86 88.9572 11.6733 89.4505 11.3C89.9439 10.9267 90.3572 10.4133 90.6905 9.76C90.8105 8.41333 91.0705 6.82 91.4705 4.98C90.1239 4.98 88.9372 5.46667 87.9105 6.44C86.8839 7.41333 86.3705 8.54 86.3705 9.82ZM99.8571 18.98C99.0304 18.98 98.4504 18.7733 98.1171 18.36C97.7971 17.96 97.6371 17.3733 97.6371 16.6C97.6371 15.84 97.7971 14.3 98.1171 11.98C98.4504 9.66 98.7704 7.68 99.0771 6.04L97.9571 4.44C98.7838 3.96 99.4971 3.6 100.097 3.36C100.697 3.10667 101.29 2.98 101.877 2.98C102.837 2.98 103.317 3.61333 103.317 4.88C103.317 5.05333 103.29 5.40667 103.237 5.94L103.437 6.04C103.824 5.08 104.384 4.33333 105.117 3.8C105.85 3.25333 106.71 2.98 107.697 2.98C108.697 2.98 109.49 3.43333 110.077 4.34C110.664 5.23333 110.957 6.34667 110.957 7.68C110.957 9.46667 110.33 11.0933 109.077 12.56C108.464 13.28 107.644 13.8667 106.617 14.32C105.59 14.76 104.444 14.98 103.177 14.98C102.79 14.98 102.284 14.9467 101.657 14.88C101.617 15.3467 101.597 15.78 101.597 16.18C101.597 17.0333 101.804 17.64 102.217 18C101.47 18.6533 100.684 18.98 99.8571 18.98ZM102.477 10.7L102.017 13.02C103.63 12.98 104.917 12.4533 105.877 11.44C106.85 10.4133 107.337 9.29333 107.337 8.08C107.337 7.45333 107.21 6.95333 106.957 6.58C106.717 6.19333 106.364 6 105.897 6C104.244 6 103.104 7.56667 102.477 10.7Z" fill="black"/>
</svg>
